<?xml version="1.0" encoding="UTF-8"?>
<svg width="3447px" height="1000px" viewBox="0 0 3447 1000" version="1.1" xmlns="http://www.w3.org/2000/svg" xmlns:xlink="http://www.w3.org/1999/xlink">
    <title>7 Peaks Software</title>
    <desc>7 Peaks Software - International design and software company based in Bangkok - www.7peakssoftware.com</desc>
    <g id="7-Peaks-Software_www.7peakssoftware.com" stroke="none" stroke-width="1" fill="none" fill-rule="evenodd">
        <path d="M1576.808,751 L1576.808,251 L1953.312,251 L1953.312,373.223 L1695.135,373.223 L1695.135,439.891 L1921.04,439.891 L1921.04,562.111 L1695.135,562.111 L1695.135,628.779 L1953.312,628.779 L1953.312,751 L1576.808,751 Z M3018.621,251 L2782.529,489.865 L3040.895,751 L2870.986,751 L2691.485,578.047 L2691.485,751 L2566.484,751 L2566.484,251 L2691.485,251 L2691.485,403.682 L2849.352,251 L3018.621,251 Z M3302.414,454.613 C3360.246,470.88 3446.994,507.025 3446.994,603.411 C3446.994,725.699 3304.822,751 3245.789,751 C3190.969,751 3103.621,740.157 3040.971,691.965 L3122.897,609.433 C3157.235,626.904 3203.018,634.735 3246.393,634.735 C3287.358,634.735 3309.643,622.687 3318.682,613.049 C3321.09,610.035 3323.5,606.422 3323.5,601.001 C3323.5,596.181 3319.882,585.339 3295.189,576.301 C3286.15,573.29 3271.694,568.471 3264.462,566.662 L3186.148,544.975 C3126.511,528.711 3043.982,494.371 3043.982,397.986 C3043.982,279.312 3181.328,251 3244.586,251 C3304.822,251 3370.488,265.459 3431.332,311.842 L3348.801,394.974 C3318.08,375.698 3281.334,366.661 3244.586,366.661 C3208.441,366.661 3181.935,375.095 3170.488,390.156 C3168.078,393.167 3166.875,396.782 3166.875,399.795 C3166.875,407.626 3171.693,412.445 3178.316,416.661 C3183.138,420.277 3188.558,423.287 3195.187,425.096 L3207.837,428.711 C3219.285,432.927 3228.318,434.735 3237.355,436.539 L3302.414,454.613 Z M2315.477,251 L2538.231,751 L2400.102,751 L2354.055,651 L2177.965,651 L2132.539,751 L1994.41,751 L2216.543,251 L2315.477,251 Z M2228.367,528.775 L2304.277,528.775 L2266.321,442.287 L2228.367,528.775 Z M1370.289,251 C1461.757,251 1533.933,329.889 1533.933,423.222 C1533.933,516.555 1461.758,595.446 1370.289,595.446 L1258.332,595.446 L1258.332,751 L1125,751 L1125,251 L1370.289,251 Z M1359.709,473.221 C1385.222,473.221 1406.374,450.601 1406.374,423.223 C1406.374,395.844 1385.221,373.223 1360.956,373.223 L1258.331,373.223 L1258.331,473.221 L1359.709,473.221 Z" id="Shape" fill="#595959"></path>
        <path d="M500,999.995 C776.142,999.995 1000,776.137 1000,499.994 C1000,223.862 776.142,0.005 500,0.005 C223.858,0.005 0,223.862 0,499.994 C0,776.137 223.858,999.995 500,999.995 L500,999.995 Z" id="Shape" fill="#73C07C"></path>
        <path d="M583.862,716.089 C583.862,778.601 533.285,829.277 470.897,829.277 C408.511,829.277 357.946,778.601 357.946,716.089 C357.946,716.089 351.99,639.636 501.023,478.388 C656.783,309.863 702.675,290.8 702.675,290.8 C720.234,279.79 723.566,283.737 710.654,300.119 C710.654,300.119 625.282,391.601 602.688,527.434 C584.778,635.114 583.862,713.708 583.862,716.089 Z M352.274,236.41 L537.91,236.41 C549.644,236.41 552.509,246.11 544.986,254.397 L343.616,442.514 C336.117,450.785 328.959,448.76 328.959,437.957 L328.959,261.951 C328.959,251.149 340.554,236.41 352.274,236.41 Z" id="Shape" fill="#FFFFFF"></path>
    </g>
</svg>
