<?xml version="1.0" encoding="utf-8"?>
<!-- Generator: Adobe Illustrator 16.0.0, SVG Export Plug-In . SVG Version: 6.00 Build 0)  -->
<!DOCTYPE svg PUBLIC "-//W3C//DTD SVG 1.1//EN" "http://www.w3.org/Graphics/SVG/1.1/DTD/svg11.dtd">
<svg version="1.1" id="Layer_1" xmlns="http://www.w3.org/2000/svg" xmlns:xlink="http://www.w3.org/1999/xlink" x="0px" y="0px"
	 width="167.6px" height="51.2px" viewBox="0 0 167.6 51.2" enable-background="new 0 0 167.6 51.2" xml:space="preserve">
<g>
	<path fill="#0A69B3" d="M161.5,0c2.3,1.5,3.8,3.3,4.4,5.5c3,10.5-15.8,25.2-42.1,32.7c-26.3,7.5-50,5.1-53-5.5
		c-0.6-2.2-0.3-4.6,0.8-7c-1.7,3-2.3,5.9-1.5,8.5c3.1,10.8,27.4,13.4,54.2,5.7c26.8-7.7,46.1-22.7,43-33.5
		C166.5,3.8,164.5,1.6,161.5,0"/>
	<path fill="#C1421E" d="M135.4,35.8L135.4,35.8c-0.2-0.7-0.5-1.3-1.1-1.7l-10.8-7.9l-0.4-0.2l-0.1-0.1c-0.2-0.1-0.5-0.2-0.9-0.2
		c-0.3,0-0.7,0.1-1,0.3c-0.4,0.3-0.7,0.7-0.8,1.2c-0.1,0.8,0.4,1.4,0.6,1.6l1.1,1l7.5,7.2l0.1,0.1c0,0,0,0,0,0c0,0,0,0.1,0,0.1
		l0,0.1L126,47.3l-0.5,1.3l0,0.1c-0.1,0.2-0.3,1,0.2,1.7c0.3,0.4,0.7,0.7,1.3,0.7c0.1,0,0.1,0,0.2,0c0.6,0,1.1-0.3,1.5-0.8l0.3-0.5
		l6.3-12.2C135.5,37.1,135.6,36.4,135.4,35.8z"/>
	<path fill="#C1421E" d="M12.2,0.1L8.3,12.5c-0.9,2.8-0.8,2.7-1.3,3.4c-0.6,0.8-1.6,1.3-2.9,1.3c-0.7,0-1.3-0.1-2.5-0.3L0,22
		c1.6,0.3,2.6,0.4,3.9,0.4c3.4,0,5.4-0.6,7.2-2c1.5-1.2,2.1-2.4,3.2-5.8l4.5-14.5H12.2"/>
	<path fill="#C1421E" d="M26.6,5.4c-5.6,0-10.3,4-11.1,9.4c-0.7,4.7,2.2,7.7,7.3,7.7c3.8,0,7.2-1.9,9.4-5.3l-5.4-0.9
		c-0.8,1.4-1.8,2-3.1,2c-1.5,0-2.4-0.9-2.2-2.2c0-0.2,0.1-0.6,0.2-1h11.3c0.3-0.9,0.4-1.3,0.5-1.8C34.2,8.5,31.5,5.4,26.6,5.4
		 M27.8,11.2c0,0.2-0.1,0.5-0.2,0.8h-4.9c0.6-1.8,1.8-2.9,3.3-2.9C27.3,9,28,9.9,27.8,11.2z"/>
	<path fill="#C1421E" d="M40.8,16.8c0-0.2,0-0.1,0.3-1.1l1.8-5.8h3l1.3-4h-3l1.5-4.9l-5.4,0.5l-1.7,4.4h-2.7l-1.3,4h2.3l-1.8,5.8
		c-0.4,1.4-0.6,2-0.6,2.4c-0.4,2.7,1.2,4.2,4.5,4.2c1.3,0,2-0.1,3.5-0.4l1.3-4.2c-0.7,0.1-1.1,0.2-1.6,0.2
		C41.2,17.9,40.7,17.5,40.8,16.8"/>
	<path fill="#C1421E" d="M59.1,5.7l-0.6,1.9c-0.6-1.7-1.6-2.3-3.6-2.3c-2.6,0-4.8,1.3-6.7,3.8c-1.4,1.9-2.4,4.3-2.8,6.6
		c-0.6,4,1.2,6.8,4.5,6.8c1.9,0,4.5-1,6.1-3l0,2.5h4.3l5.1-16.3H59.1 M57.4,11c0,0.2-0.1,0.4-0.1,0.6l-1.4,4.6
		c-0.7,1.5-1.5,2.2-2.6,2.2c-1.1,0-1.6-0.8-1.4-2.2c0.1-0.9,0.8-3,1.3-4.2c0.7-1.7,1.7-2.6,2.8-2.6C56.9,9.3,57.5,10.1,57.4,11z"/>
	<path fill="#C1421E" d="M79.4,5.3c-1.9,0-3,0.5-5,2.5l2.4-7.7h-6.3L63.7,22h2.8l2.2-2.7c0.9,2.2,2.3,3.1,4.9,3.1
		c2.9,0,5.4-1.4,7.4-4.1c1.3-1.8,2.3-4.2,2.6-6.4C84.2,7.8,82.6,5.3,79.4,5.3 M77.3,11.6c-0.2,1.2-0.6,2.8-1.1,4
		c-0.9,2-1.7,2.9-2.9,2.9c-1.2,0-1.7-0.6-1.6-1.8l0.1-0.4l1.4-4.6c0.8-1.7,1.6-2.5,2.8-2.5C77,9.2,77.5,10,77.3,11.6z"/>
	<path fill="#C1421E" d="M98.5,5.4c-0.3,0-0.6-0.1-0.8-0.1c-2.4,0-4.1,1.2-5.9,4.4l1.2-3.9h-5.5L82.5,22h6.2l2.1-6.6
		c1-3.2,2.3-4.3,4.9-4.3c0.3,0,0.6,0,1.2,0L98.5,5.4"/>
	<path fill="#C1421E" d="M107.2,5.4c-5.4,0-10.1,4-10.8,9.5c-0.7,4.6,2.1,7.6,7,7.6c5.6,0,10.3-4,11-9.4
		C115.1,8.4,112.3,5.4,107.2,5.4 M108.1,11.8c-0.2,1.3-0.8,3.2-1.3,4.5c-0.7,1.6-1.4,2.2-2.6,2.2c-1.2,0-1.8-0.9-1.5-2.5
		c0.2-1.2,0.9-3.4,1.4-4.6c0.7-1.4,1.5-2.1,2.5-2.1C107.8,9.3,108.3,10.2,108.1,11.8z"/>
	<path fill="#C1421E" d="M129,5.7l-0.6,1.9c-0.6-1.7-1.6-2.3-3.6-2.3c-2.6,0-4.8,1.3-6.7,3.8c-1.4,1.9-2.4,4.3-2.8,6.6
		c-0.6,4,1.2,6.8,4.5,6.8c1.9,0,4.5-1,6.1-3l0,2.5h4.3l5.1-16.3H129 M127.3,11c0,0.2-0.1,0.4-0.1,0.6l-1.4,4.6
		c-0.7,1.5-1.5,2.2-2.6,2.2c-1.1,0-1.6-0.8-1.4-2.2c0.1-0.9,0.8-3,1.3-4.2c0.7-1.7,1.7-2.6,2.8-2.6C126.8,9.3,127.4,10.1,127.3,11z"
		/>
	<path fill="#C1421E" d="M150.3,0.1L148,7.6c-0.6-1.7-1.6-2.3-3.6-2.3c-2.6,0-4.8,1.3-6.7,3.8c-1.4,1.9-2.4,4.3-2.8,6.6
		c-0.6,4,1.2,6.8,4.5,6.8c1.9,0,3.7-1,5.3-3l-0.7,2.5h5.8l6.8-21.9H150.3 M146.9,11c0,0.2-0.1,0.4-0.1,0.6l-1.4,4.6
		c-0.7,1.5-1.5,2.2-2.6,2.2c-1.1,0-1.6-0.8-1.4-2.2c0.1-0.9,0.8-3,1.3-4.2c0.7-1.7,1.7-2.6,2.8-2.6C146.4,9.3,147,10.1,146.9,11z"/>
</g>
</svg>
