<?xml version="1.0" encoding="utf-8"?>
<!-- Generator: Adobe Illustrator 23.0.3, SVG Export Plug-In . SVG Version: 6.00 Build 0)  -->
<svg version="1.1" id="Layer_1" xmlns="http://www.w3.org/2000/svg" xmlns:xlink="http://www.w3.org/1999/xlink" x="0px" y="0px"
	 viewBox="0 0 3950 1500" style="enable-background:new 0 0 3950 1500;" xml:space="preserve">
<style type="text/css">
	.st0{fill:#FFFFFF;}
	.st1{fill-rule:evenodd;clip-rule:evenodd;fill:#73C07C;}
	.st2{fill:#73C07C;}
	.st3{fill-rule:evenodd;clip-rule:evenodd;fill:#595959;}
	.st4{fill:#595959;}
</style>
<path class="st0" d="M750,250c-276.1,0-500,223.9-500,500c0,276.1,223.9,500,500,500s500-223.9,500-500
	C1250,473.9,1026.1,250,750,250z M579,688V512c0-10.8,11.6-25.5,23.3-25.5h185.6c11.7,0,14.6,9.7,7.1,18L593.6,692.5
	C586.1,700.8,579,698.8,579,688z M960.7,550.1c0,0-85.4,91.5-108,227.3c-17.9,107.7-18.8,186.3-18.8,188.7
	c0,62.5-50.6,113.2-113,113.2c-62.4,0-113-50.7-113-113.2c0,0-6-76.5,143.1-237.7c155.8-168.5,201.7-187.6,201.7-187.6
	C970.2,529.8,973.6,533.7,960.7,550.1z"/>
<g>
	<g>
		<g>
			<polygon class="st0" points="1826.8,866.1 2203.3,866.1 2203.3,743.9 1945.1,743.9 1945.1,677.2 2171,677.2 2171,555 1945.1,555 
				1945.1,488.3 2203.3,488.3 2203.3,366.1 1826.8,366.1 1826.8,866.1 			"/>
			<polygon class="st0" points="3268.6,366.1 3099.4,366.1 2941.5,518.8 2941.5,366.1 2816.5,366.1 2816.5,866.1 2941.5,866.1 
				2941.5,693.1 3121,866.1 3290.9,866.1 3032.5,604.9 3268.6,366.1 			"/>
			<path class="st0" d="M3552.4,569.7l-65.1-18.1c-9-1.8-18.1-3.6-29.5-7.8l-12.7-3.6c-6.6-1.8-12-4.8-16.9-8.4
				c-6.6-4.2-11.4-9-11.4-16.9c0-3,1.2-6.6,3.6-9.6c11.4-15.1,38-23.5,74.1-23.5c36.7,0,73.5,9,104.2,28.3l82.5-83.1
				c-60.8-46.4-126.5-60.8-186.7-60.8c-63.3,0-200.6,28.3-200.6,147c0,96.4,82.5,130.7,142.2,147l78.3,21.7
				c7.2,1.8,21.7,6.6,30.7,9.6c24.7,9,28.3,19.9,28.3,24.7c0,5.4-2.4,9-4.8,12c-9,9.6-31.3,21.7-72.3,21.7
				c-43.4,0-89.2-7.8-123.5-25.3L3291,807c62.7,48.2,150,59,204.8,59c59,0,201.2-25.3,201.2-147.6
				C3697,622.1,3610.2,586,3552.4,569.7L3552.4,569.7z"/>
			<path class="st0" d="M1620.3,366.1H1375v500h133.3V710.5h112c91.5,0,163.6-78.9,163.6-172.2
				C1783.9,445,1711.8,366.1,1620.3,366.1z M1609.7,588.3h-101.4v-100H1611c24.3,0,45.4,22.6,45.4,50
				C1656.4,565.7,1635.2,588.3,1609.7,588.3z"/>
			<path class="st0" d="M2565.5,366.1h-98.9l-222.1,500h138.1l45.4-100h176.1l46,100h138.1L2565.5,366.1z M2478.4,643.8l38-86.5
				l38,86.5H2478.4z"/>
		</g>
	</g>
	<g>
		<path class="st0" d="M1495,987.8c-3.9-5-9.1-9-15.5-12c-6.4-3-12.5-4.4-18.4-4.4c-3.1,0-6.1,0.3-9.3,0.8c-3.1,0.5-6,1.6-8.5,3.1
			c-2.5,1.5-4.6,3.5-6.3,5.9c-1.7,2.4-2.6,5.5-2.6,9.3c0,3.2,0.7,5.9,2,8.1s3.3,4,5.9,5.6c2.6,1.6,5.7,3.1,9.3,4.4
			c3.6,1.3,7.6,2.7,12.1,4.2c6.5,2.2,13.2,4.5,20.2,7.1c7,2.6,13.4,6.1,19.1,10.4c5.7,4.3,10.5,9.6,14.3,16
			c3.8,6.4,5.6,14.3,5.6,23.8c0,10.9-2,20.4-6.1,28.4c-4,8-9.5,14.6-16.3,19.8c-6.8,5.2-14.6,9.1-23.4,11.6
			c-8.8,2.5-17.8,3.8-27.2,3.8c-13.6,0-26.8-2.4-39.5-7.1c-12.7-4.8-23.3-11.5-31.7-20.3l30.1-30.7c4.7,5.7,10.8,10.5,18.4,14.4
			c7.6,3.9,15.2,5.8,22.7,5.8c3.4,0,6.7-0.4,10-1.1c3.2-0.7,6.1-1.9,8.5-3.5c2.4-1.6,4.3-3.8,5.8-6.5c1.4-2.7,2.2-5.9,2.2-9.7
			c0-3.6-0.9-6.6-2.7-9.1c-1.8-2.5-4.4-4.8-7.7-6.9c-3.3-2.1-7.4-3.9-12.4-5.7c-4.9-1.7-10.5-3.5-16.8-5.5c-6.1-2-12.1-4.3-17.9-7
			c-5.8-2.7-11-6.1-15.6-10.4c-4.6-4.2-8.3-9.3-11-15.3c-2.8-6-4.2-13.3-4.2-21.9c0-10.6,2.2-19.6,6.5-27.2
			c4.3-7.5,10-13.7,16.9-18.6c7-4.8,14.9-8.4,23.7-10.6c8.8-2.2,17.7-3.4,26.6-3.4c10.8,0,21.7,2,33,5.9c11.2,3.9,21,9.8,29.5,17.5
			L1495,987.8z"/>
		<path class="st0" d="M1762.7,1032.8c0,15.1-2.6,28.8-7.8,41.3c-5.2,12.5-12.4,23.1-21.7,32c-9.2,8.9-20.2,15.7-33,20.6
			c-12.7,4.8-26.5,7.3-41.4,7.3c-14.9,0-28.7-2.4-41.3-7.3c-12.6-4.8-23.6-11.7-32.8-20.6c-9.2-8.9-16.5-19.5-21.7-32
			c-5.2-12.5-7.8-26.2-7.8-41.3c0-15.2,2.6-29,7.8-41.3c5.2-12.3,12.4-22.7,21.7-31.3c9.2-8.6,20.2-15.2,32.8-19.9
			c12.6-4.7,26.4-7,41.3-7c14.9,0,28.7,2.3,41.4,7c12.7,4.7,23.7,11.3,33,19.9c9.2,8.6,16.5,19.1,21.7,31.3
			C1760.1,1003.8,1762.7,1017.5,1762.7,1032.8z M1713.5,1032.8c0-8.2-1.3-16-4-23.1c-2.7-7.2-6.4-13.3-11.2-18.4
			c-4.8-5.1-10.5-9.1-17.2-12.1c-6.7-3-14.1-4.4-22.2-4.4s-15.4,1.5-22.1,4.4c-6.6,3-12.4,7-17.2,12.1c-4.8,5.1-8.6,11.3-11.2,18.4
			c-2.6,7.2-3.9,14.9-3.9,23.1c0,8.6,1.3,16.5,4,23.8s6.4,13.5,11.2,18.7c4.8,5.2,10.4,9.3,17.1,12.2c6.6,3,14,4.4,22.1,4.4
			s15.4-1.5,22.1-4.4c6.6-3,12.4-7,17.2-12.2c4.8-5.2,8.6-11.4,11.3-18.7S1713.5,1041.4,1713.5,1032.8z"/>
		<path class="st0" d="M1849.3,977.6v39.3h73.7v37.9h-73.7v74h-45.5V938.3h125.4v39.3H1849.3z"/>
		<path class="st0" d="M2051.1,977.6v151.2h-46V977.6h-53.8v-39.3h153.6v39.3H2051.1z"/>
		<path class="st0" d="M2338.4,1128.8h-45.5l-37.7-128.9h-0.8l-37.7,128.9h-45.7L2117,938.3h49.5l30.1,126.7h0.8l33.9-126.7h47.9
			l34.2,126.7h0.8l30.7-126.7h47.9L2338.4,1128.8z"/>
		<path class="st0" d="M2549,1128.8l-14.8-37.4h-73.7l-14,37.4h-50l79.9-190.5h44.7l79.1,190.5H2549z M2497.9,989.2l-24.2,65.4h47.9
			L2497.9,989.2z"/>
		<path class="st0" d="M2728.8,1128.8l-41.4-75.6h-15.7v75.6h-44.9V938.3h72.6c9.1,0,18.1,0.9,26.8,2.8c8.7,1.9,16.5,5.1,23.4,9.5
			c6.9,4.5,12.4,10.4,16.5,17.8c4.1,7.4,6.2,16.5,6.2,27.4c0,12.9-3.5,23.8-10.5,32.6c-7,8.8-16.7,15.1-29.1,18.8l49.8,81.5H2728.8z
			 M2726.9,996.7c0-4.5-1-8.1-2.8-10.9c-1.9-2.8-4.3-4.9-7.3-6.5c-3-1.5-6.3-2.6-10-3.1c-3.7-0.5-7.3-0.8-10.7-0.8h-24.6v44.4h21.9
			c3.8,0,7.7-0.3,11.6-0.9c4-0.6,7.6-1.7,10.8-3.4c3.2-1.6,5.9-3.9,8-7C2725.8,1005.5,2726.9,1001.6,2726.9,996.7z"/>
		<path class="st0" d="M2815.9,1128.8V938.3H2944v38.7h-83.7v36h79.1v36.9h-79.1v39.5h88.5v39.3H2815.9z"/>
	</g>
</g>
</svg>
